<svg width="241" height="90" viewBox="0 0 241 90" fill="none" xmlns="http://www.w3.org/2000/svg">
<path d="M119.436 89.291C118.038 89.291 116.673 88.9417 115.339 88.2431C114.006 87.5446 113.053 86.4014 112.482 84.8137C112.418 84.6232 112.482 84.4645 112.672 84.3374C112.863 84.2739 113.021 84.401 113.148 84.7185C113.783 85.9251 114.577 86.8142 115.53 87.3858C116.546 87.9574 117.594 88.2431 118.673 88.2431C118.927 88.2431 119.182 88.2114 119.436 88.1479C119.753 88.1479 120.039 88.1161 120.293 88.0526C122.452 87.5446 124.135 86.2744 125.342 84.2422C126.612 82.21 127.501 79.8284 128.009 77.0976C128.581 74.3668 128.93 71.6043 129.057 68.81C129.184 66.0791 129.216 63.7294 129.152 61.7607C127.374 62.7768 125.532 63.6659 123.627 64.428C121.785 65.19 119.848 65.8251 117.816 66.3332C116.864 66.5872 115.752 66.8095 114.482 67C113.275 67.127 111.973 67.1905 110.576 67.1905C108.1 67.1905 105.655 66.746 103.241 65.8569C100.891 64.9043 99.272 63.1261 98.3829 60.5223C98.1289 59.8872 97.9701 59.2521 97.9066 58.6171C97.8431 57.9185 97.8114 57.2517 97.8114 56.6166C97.8114 54.7749 98.0654 52.9967 98.5735 51.282C99.145 49.5038 99.7483 47.9161 100.383 46.519C98.9228 45.6299 97.6209 44.5502 96.4777 43.2801C95.3981 42.0099 94.5725 40.5493 94.0009 38.8981C93.7469 38.136 93.5564 37.3739 93.4294 36.6118C93.3024 35.8498 93.2389 35.1194 93.2389 34.4208C93.2389 31.563 94.0327 28.9592 95.6204 26.6095C97.2081 24.1962 99.1768 22.164 101.527 20.5128C103.876 18.8616 106.194 17.782 108.481 17.2739C108.735 17.2104 109.306 17.1152 110.195 16.9881C111.148 16.8611 112.037 16.7976 112.863 16.7976C113.879 16.7976 114.418 16.9246 114.482 17.1787C114.609 17.4327 114.514 17.5597 114.196 17.5597C113.307 17.5597 112.45 17.5597 111.624 17.5597C110.799 17.5597 109.941 17.655 109.052 17.8455C106.893 18.3535 104.765 19.3697 102.67 20.8938C100.637 22.3545 98.9228 24.1644 97.5256 26.3237C96.1919 28.4829 95.5251 30.8644 95.5251 33.4682C95.5251 34.1668 95.5886 34.8971 95.7156 35.6592C95.8427 36.3578 96.0332 37.0881 96.2872 37.8502C97.2398 40.5175 98.9545 42.7085 101.431 44.4232C103.527 40.4223 105.845 36.9294 108.385 33.9445C110.926 30.8962 113.593 28.0066 116.387 25.2758C119.182 22.4815 122.008 19.5284 124.865 16.4166C124.865 15.845 124.834 15.2417 124.77 14.6066C124.77 13.9716 124.77 13.3365 124.77 12.7014C124.77 11.1772 124.834 9.65307 124.961 8.1289C125.151 6.54122 125.5 5.17582 126.009 4.03269C126.39 3.2071 126.866 2.3815 127.437 1.55591C128.073 0.666809 128.866 0.222259 129.819 0.222259C130.454 0.222259 130.994 0.444535 131.438 0.889087C131.883 1.27013 132.232 1.77818 132.486 2.41326C132.74 2.98482 132.867 3.6834 132.867 4.50899C132.867 5.90615 132.486 7.3033 131.724 8.70046C131.026 10.0976 130.2 11.3995 129.247 12.6061C128.295 13.7493 127.437 14.7654 126.675 15.6545C126.675 18.2583 126.866 20.9256 127.247 23.6564C127.691 26.3237 128.104 28.9592 128.485 31.563C129.946 29.7213 131.661 28.0066 133.629 26.4189C135.662 24.7678 137.853 23.6564 140.202 23.0848C140.964 22.8943 141.79 22.799 142.679 22.799C143.949 22.799 145.156 23.1166 146.299 23.7516C147.506 24.3232 148.395 25.4346 148.966 27.0858C149.347 28.2289 149.538 29.499 149.538 30.8962C149.538 32.5474 149.316 34.2621 148.871 36.0403C148.427 37.755 147.982 39.2474 147.537 40.5175C146.077 44.455 144.076 48.0114 141.536 51.1867C138.996 54.2986 136.043 56.9659 132.677 59.1886C132.74 60.2047 132.804 61.2526 132.867 62.3322C132.931 63.4118 132.963 64.4915 132.963 65.5711C132.963 68.8735 132.645 72.1758 132.01 75.4782C131.438 78.8441 130.359 81.7337 128.771 84.1469C127.183 86.6237 124.834 88.2431 121.722 89.0052C121.087 89.1957 120.325 89.291 119.436 89.291ZM126.675 14.3208C127.12 13.8128 127.691 12.9554 128.39 11.7488C129.152 10.4787 129.819 9.14501 130.391 7.74785C130.962 6.3507 131.248 5.20757 131.248 4.31847C131.248 3.93743 131.216 3.6834 131.153 3.55639C131.089 3.36586 130.994 3.17534 130.867 2.98482C130.74 2.7943 130.549 2.69904 130.295 2.69904C129.914 2.69904 129.501 2.98482 129.057 3.55639C128.676 4.06444 128.422 4.50899 128.295 4.89003C127.723 6.09667 127.31 7.65259 127.056 9.5578C126.866 11.3995 126.739 12.9872 126.675 14.3208ZM107.909 46.519C110.005 46.519 112.005 46.0426 113.91 45.09C115.879 44.0739 117.689 42.8355 119.34 41.3749C120.991 39.9142 122.42 38.5171 123.627 37.1834C124.897 35.7862 125.85 34.7066 126.485 33.9445C126.167 31.2137 125.85 28.5147 125.532 25.8474C125.278 23.1166 125.056 20.3858 124.865 17.655C123.341 19.3062 121.785 20.9256 120.198 22.5133C118.61 24.1009 117.086 25.7521 115.625 27.4668C113.974 29.372 112.418 31.4043 110.957 33.5635C109.56 35.6592 108.258 37.8502 107.052 40.1365C106.544 41.0256 106.067 41.9464 105.623 42.899C105.178 43.8517 104.734 44.836 104.289 45.8521C105.432 46.2967 106.639 46.519 107.909 46.519ZM132.391 57.7597C135.376 55.8545 137.98 53.6318 140.202 51.0915C142.489 48.4877 144.267 45.4393 145.537 41.9464C146.109 40.3588 146.521 38.9299 146.775 37.6597C147.029 36.3261 147.156 35.1194 147.156 34.0398C147.156 31.4995 146.553 29.5943 145.346 28.3242C144.14 27.054 142.584 26.4189 140.679 26.4189C138.964 26.4189 137.059 26.9588 134.963 28.0384C132.867 29.0545 130.772 30.6104 128.676 32.7062C129.311 36.8976 130.009 41.0891 130.772 45.2806C131.597 49.472 132.137 53.6318 132.391 57.7597ZM114.101 64.428C115.181 64.428 116.228 64.3645 117.245 64.2374C118.324 64.0469 119.277 63.8564 120.102 63.6659C123.278 62.9038 126.231 61.7607 128.962 60.2365C128.898 56.045 128.612 51.8536 128.104 47.6621C127.66 43.4071 127.183 39.1521 126.675 34.8971C125.977 36.1038 124.992 37.5009 123.722 39.0886C122.452 40.6128 120.96 42.1052 119.245 43.5659C117.53 44.963 115.657 46.1379 113.625 47.0905C111.656 48.0431 109.592 48.5194 107.433 48.5194C106.163 48.5194 104.892 48.3289 103.622 47.9479C103.368 48.837 103.114 49.8213 102.86 50.9009C102.67 51.9806 102.574 53.0602 102.574 54.1398C102.574 55.4735 102.765 56.8071 103.146 58.1408C104.035 60.554 105.527 62.2052 107.623 63.0943C109.782 63.9834 111.942 64.428 114.101 64.428Z" fill="#FFA55C"/>
<path d="M8.104 68.472C7.272 68.472 6.552 67.992 5.944 67.032C5.336 66.104 4.904 64.584 4.648 62.472C4.616 62.312 4.6 62.12 4.6 61.896C4.6 61.64 4.6 61.384 4.6 61.128C4.6 60.072 4.664 58.744 4.792 57.144C4.92 55.512 5.08 53.72 5.272 51.768C5.464 49.816 5.64 47.816 5.8 45.768C5.992 43.688 6.152 41.656 6.28 39.672C6.408 37.688 6.472 35.88 6.472 34.248C6.472 32.232 6.344 30.6 6.088 29.352C5.832 28.104 5.368 27.48 4.696 27.48C4.28 27.48 3.864 27.72 3.448 28.2C3.064 28.648 2.712 29.16 2.392 29.736C2.104 30.28 1.864 30.728 1.672 31.08C1.512 31.4 1.416 31.448 1.384 31.224C1.352 31.096 1.32 30.984 1.288 30.888C1.288 30.76 1.288 30.632 1.288 30.504C1.288 29.896 1.432 29.256 1.72 28.584C2.008 27.912 2.408 27.352 2.92 26.904C3.432 26.424 4.008 26.184 4.648 26.184C4.776 26.184 4.888 26.2 4.984 26.232C5.08 26.232 5.176 26.248 5.272 26.28C6.52 26.6 7.368 27.624 7.816 29.352C8.264 31.08 8.488 33.176 8.488 35.64C8.488 37.496 8.392 39.464 8.2 41.544C8.04 43.624 7.848 45.72 7.624 47.832C7.432 49.912 7.24 51.896 7.048 53.784C6.888 55.672 6.808 57.336 6.808 58.776C6.808 59.192 6.808 59.592 6.808 59.976C6.84 60.328 6.872 60.664 6.904 60.984C7.16 63 7.512 64.408 7.96 65.208C8.408 66.04 8.92 66.456 9.496 66.456C10.136 66.456 10.792 66.104 11.464 65.4C12.168 64.696 12.856 63.816 13.528 62.76C14.2 61.704 14.808 60.648 15.352 59.592C16.088 58.216 16.76 56.6 17.368 54.744C17.976 52.888 18.52 51 19 49.08C19.512 47.16 19.912 45.4 20.2 43.8C19.88 43.256 19.688 42.696 19.624 42.12C19.56 41.544 19.528 40.808 19.528 39.912C19.528 38.952 19.704 38.2 20.056 37.656C20.408 37.112 20.776 36.84 21.16 36.84C21.736 36.84 22.12 37.32 22.312 38.28C22.664 39.88 23.016 41.576 23.368 43.368C23.72 45.128 24.104 46.856 24.52 48.552C24.968 50.248 25.48 51.816 26.056 53.256C27.24 56.104 28.328 58.152 29.32 59.4C30.312 60.616 31.224 61.224 32.056 61.224C32.92 61.224 33.672 60.68 34.312 59.592C34.984 58.472 35.544 57.016 35.992 55.224C36.44 53.4 36.776 51.432 37 49.32C37.224 47.176 37.336 45.08 37.336 43.032C37.336 41.336 37.256 39.752 37.096 38.28C36.968 36.808 36.728 35.608 36.376 34.68C36.248 34.296 36.152 33.896 36.088 33.48C36.024 33.064 35.992 32.68 35.992 32.328C35.992 31.88 36.04 31.496 36.136 31.176C36.264 30.856 36.44 30.696 36.664 30.696C36.92 30.696 37.176 30.888 37.432 31.272C37.784 31.72 38.104 32.344 38.392 33.144C38.712 33.912 38.984 34.584 39.208 35.16C39.464 35.8 39.8 36.584 40.216 37.512C40.632 38.408 41.064 39.24 41.512 40.008C41.992 40.744 42.456 41.192 42.904 41.352C42.968 41.384 43 41.448 43 41.544C43 41.736 42.856 41.896 42.568 42.024C42.28 42.152 42.072 42.2 41.944 42.168C41.208 41.816 40.584 41.448 40.072 41.064C39.592 40.648 39.032 39.896 38.392 38.808C38.424 39.384 38.44 39.976 38.44 40.584C38.44 41.16 38.44 41.736 38.44 42.312C38.44 43.976 38.376 45.64 38.248 47.304C38.152 48.968 37.944 50.648 37.624 52.344C36.92 56.024 36.024 58.648 34.936 60.216C33.88 61.784 32.76 62.568 31.576 62.568C30.616 62.568 29.656 62.152 28.696 61.32C27.768 60.456 26.904 59.32 26.104 57.912C25.304 56.504 24.616 54.936 24.04 53.208C23.528 51.544 23.096 50.024 22.744 48.648C22.392 47.24 22.12 46.008 21.928 44.952C21.416 47.256 20.744 49.544 19.912 51.816C19.112 54.088 18.216 56.232 17.224 58.248C16.232 60.232 15.192 61.992 14.104 63.528C13.048 65.064 11.992 66.264 10.936 67.128C9.912 68.024 8.968 68.472 8.104 68.472ZM42.553 62.616C41.977 62.616 41.561 62.376 41.305 61.896C41.049 61.384 40.921 60.792 40.921 60.12C40.921 59.256 41.065 58.248 41.353 57.096C41.673 55.944 42.089 54.76 42.601 53.544C43.113 52.296 43.689 51.16 44.329 50.136C45.001 49.08 45.705 48.232 46.441 47.592C47.177 46.92 47.897 46.584 48.601 46.584C49.241 46.584 49.785 46.872 50.233 47.448C50.713 47.992 50.953 48.616 50.953 49.32C50.953 49.736 50.889 50.088 50.761 50.376C50.633 50.632 50.489 50.76 50.329 50.76C50.201 50.76 50.089 50.664 49.993 50.472C49.673 49.736 49.321 49.208 48.937 48.888C48.585 48.568 48.217 48.408 47.833 48.408C47.193 48.408 46.553 48.776 45.913 49.512C45.305 50.216 44.809 51.032 44.425 51.96C44.105 52.664 43.801 53.512 43.513 54.504C43.257 55.464 43.033 56.424 42.841 57.384C42.681 58.312 42.601 59.08 42.601 59.688C42.601 60.776 42.857 61.32 43.369 61.32C44.009 61.32 44.825 60.616 45.817 59.208C46.553 58.184 47.209 57 47.785 55.656C48.393 54.312 48.905 53.144 49.321 52.152C49.481 51.832 49.657 51.624 49.849 51.528C50.041 51.432 50.217 51.384 50.377 51.384C50.761 51.384 51.001 51.544 51.097 51.864C51.225 52.184 51.289 52.456 51.289 52.68C51.289 53.512 51.209 54.264 51.049 54.936C50.889 55.576 50.809 56.36 50.809 57.288C50.809 57.96 50.857 58.584 50.953 59.16C51.081 59.704 51.289 59.976 51.577 59.976C51.929 59.976 52.377 59.528 52.921 58.632C53.049 58.376 53.241 58.248 53.497 58.248C53.785 58.248 53.929 58.392 53.929 58.68C53.929 59.096 53.641 59.544 53.065 60.024C52.489 60.472 51.913 60.696 51.337 60.696C50.569 60.696 50.025 60.376 49.705 59.736C49.161 58.68 48.889 57.736 48.889 56.904C48.889 56.04 48.873 55.448 48.841 55.128C48.681 55.512 48.377 56.12 47.929 56.952C47.481 57.752 46.953 58.6 46.345 59.496C45.737 60.36 45.097 61.096 44.425 61.704C43.753 62.312 43.129 62.616 42.553 62.616ZM51.2744 69.96C50.9544 69.96 50.6984 69.864 50.5064 69.672C50.2824 69.48 50.2504 69.256 50.4104 69C50.8584 68.328 51.2904 67.368 51.7064 66.12C52.0904 64.904 52.4264 63.624 52.7144 62.28C53.0344 60.936 53.2904 59.72 53.4824 58.632C53.7064 57.512 53.8664 56.728 53.9624 56.28C53.3864 55.736 53.0984 55.128 53.0984 54.456C53.0984 53.944 53.2104 53.512 53.4344 53.16C53.6904 52.808 53.8824 52.648 54.0104 52.68C54.0744 52.68 54.1544 52.712 54.2504 52.776C54.3784 52.808 54.4424 52.856 54.4424 52.92C54.6344 51.416 54.7944 49.928 54.9224 48.456C55.0504 46.952 55.1144 45.576 55.1144 44.328C55.1144 43.304 55.0664 42.392 54.9704 41.592C54.8744 40.792 54.7304 40.152 54.5384 39.672C54.3464 39.192 54.2504 38.824 54.2504 38.568C54.2504 38.216 54.3464 38.04 54.5384 38.04C54.7624 38.04 54.9384 38.184 55.0664 38.472C55.4184 39.176 55.6744 40.28 55.8344 41.784C56.0264 43.288 56.1224 45 56.1224 46.92C56.1224 48.232 56.0904 49.624 56.0264 51.096C55.9624 52.536 55.8504 53.976 55.6904 55.416C56.2664 54.904 56.8584 54.408 57.4664 53.928C58.0744 53.416 58.6024 52.888 59.0504 52.344V52.296C59.0504 52.232 59.0184 52.168 58.9544 52.104C58.9224 52.04 58.9064 51.944 58.9064 51.816C58.9064 51.592 59.0664 51.32 59.3864 51C59.7064 50.68 60.1224 50.232 60.6344 49.656C61.1784 49.048 61.7384 48.504 62.3144 48.024C62.8904 47.512 63.4184 47.272 63.8984 47.304C64.2824 47.304 64.4744 47.432 64.4744 47.688C64.4744 47.976 64.2024 48.408 63.6584 48.984C63.1144 49.56 62.4584 50.168 61.6904 50.808C60.9544 51.448 60.2664 52.04 59.6264 52.584C59.0184 53.096 58.6184 53.448 58.4264 53.64L56.6024 55.656L55.6424 56.664C56.0584 57.72 56.5384 58.76 57.0824 59.784C57.6264 60.808 58.2344 61.656 58.9064 62.328C59.6104 63 60.3304 63.336 61.0664 63.336C61.8344 63.336 62.6184 62.872 63.4184 61.944C63.9624 61.272 64.4264 60.52 64.8104 59.688C65.1944 58.856 65.5144 58.232 65.7704 57.816C65.9304 57.496 66.0904 57.288 66.2504 57.192C66.4104 57.064 66.5384 57 66.6344 57C66.8584 57 66.9384 57.16 66.8744 57.48C66.7464 57.896 66.5224 58.424 66.2024 59.064C65.8824 59.704 65.5624 60.312 65.2424 60.888C64.9544 61.432 64.7304 61.816 64.5704 62.04C63.9624 62.936 63.3544 63.592 62.7464 64.008C62.1384 64.424 61.5464 64.632 60.9704 64.632C60.2344 64.632 59.5144 64.36 58.8104 63.816C58.1064 63.272 57.4504 62.568 56.8424 61.704C56.2664 60.84 55.7384 59.928 55.2584 58.968C54.9064 61.4 54.4744 63.576 53.9624 65.496C53.4504 67.448 52.8904 68.792 52.2824 69.528C51.9944 69.816 51.6584 69.96 51.2744 69.96ZM70.1763 63.624C69.0243 63.624 68.0163 62.952 67.1523 61.608C66.3203 60.232 65.9043 58.072 65.9043 55.128C65.9043 53.208 66.1443 51.672 66.6243 50.52C67.1043 49.336 67.6963 48.472 68.4003 47.928C69.1043 47.384 69.7763 47.112 70.4163 47.112C71.0563 47.112 71.6003 47.336 72.0483 47.784C72.4963 48.2 72.7203 48.808 72.7203 49.608C72.7203 50.376 72.4963 51.192 72.0483 52.056C71.6003 52.888 71.0563 53.656 70.4163 54.36C69.8083 55.032 69.2003 55.48 68.5923 55.704C68.4643 55.768 68.3043 55.8 68.1123 55.8C67.9843 55.8 67.9203 55.752 67.9203 55.656C67.9203 55.4 68.1763 55.112 68.6883 54.792C69.3283 54.344 69.9363 53.672 70.5123 52.776C71.0883 51.848 71.3763 51.032 71.3763 50.328C71.3763 49.912 71.2803 49.592 71.0883 49.368C70.8963 49.112 70.6723 48.984 70.4163 48.984C69.9363 48.984 69.4083 49.368 68.8323 50.136C68.2883 50.872 67.8883 52.152 67.6323 53.976C67.5683 54.488 67.5043 54.984 67.4403 55.464C67.4083 55.912 67.3923 56.36 67.3923 56.808C67.3923 58.6 67.6643 60.008 68.2083 61.032C68.7523 62.024 69.4723 62.52 70.3683 62.52C71.1363 62.52 72.0003 62.072 72.9603 61.176C73.9203 60.248 74.8643 58.808 75.7923 56.856C76.0163 56.344 76.2723 56.088 76.5603 56.088C76.7523 56.088 76.8483 56.216 76.8483 56.472C76.8483 56.696 76.7843 56.936 76.6562 57.192C75.8243 59.24 74.8163 60.824 73.6323 61.944C72.4483 63.064 71.2963 63.624 70.1763 63.624ZM101.509 81C100.037 81 98.6126 80.392 97.2366 79.176C95.8926 77.96 94.7566 76.2 93.8286 73.896C92.9326 71.592 92.4046 68.808 92.2446 65.544C91.2526 65.64 90.3406 65.688 89.5086 65.688C87.6526 65.688 86.2926 65.448 85.4286 64.968C84.5966 64.488 84.1806 63.864 84.1806 63.096C84.1806 62.328 84.5486 61.48 85.2846 60.552C86.0206 59.624 87.0446 58.696 88.3566 57.768C89.6686 56.808 91.2046 55.944 92.9646 55.176C93.5726 51.912 94.5486 48.392 95.8926 44.616C97.2686 40.808 99.1086 36.776 101.413 32.52C101.637 32.104 101.973 31.896 102.421 31.896C102.709 31.896 102.965 31.992 103.189 32.184C103.413 32.376 103.525 32.632 103.525 32.952C103.525 33.112 103.477 33.32 103.381 33.576C101.333 37.704 99.6206 41.496 98.2446 44.952C96.9006 48.376 95.8446 51.512 95.0766 54.36C96.5166 53.816 98.0526 53.368 99.6846 53.016C101.317 52.664 102.981 52.456 104.677 52.392C105.125 52.392 105.349 52.456 105.349 52.584C105.349 52.712 105.189 52.84 104.869 52.968C104.581 53.064 104.085 53.128 103.381 53.16C101.813 53.256 100.309 53.48 98.8686 53.832C97.4606 54.152 96.1326 54.552 94.8846 55.032C94.4046 56.888 94.0366 58.616 93.7806 60.216C93.5246 61.784 93.3646 63.24 93.3006 64.584C96.5966 63.88 99.5886 62.856 102.277 61.512C104.997 60.136 107.397 58.552 109.477 56.76C111.557 54.968 113.301 53.112 114.709 51.192C115.605 49.976 116.245 48.904 116.629 47.976C117.045 47.016 117.253 46.184 117.253 45.48C117.253 44.456 116.933 43.656 116.293 43.08C115.653 42.472 114.805 42.04 113.749 41.784C112.693 41.496 111.541 41.352 110.293 41.352C108.981 41.352 107.653 41.48 106.309 41.736C104.965 41.96 103.749 42.28 102.661 42.696C102.405 42.76 102.229 42.792 102.133 42.792C101.717 42.792 101.509 42.648 101.509 42.36C101.509 42.072 101.685 41.848 102.037 41.688C105.973 39.448 108.773 37.416 110.437 35.592C112.101 33.768 112.933 32.232 112.933 30.984C112.933 29.896 112.421 29.064 111.397 28.488C110.405 27.88 109.093 27.576 107.461 27.576C106.181 27.576 104.741 27.784 103.141 28.2C101.541 28.616 99.8926 29.288 98.1966 30.216C96.7886 30.984 95.5086 31.896 94.3566 32.952C93.2366 33.976 92.2766 35.048 91.4766 36.168C90.7086 37.256 90.1326 38.296 89.7486 39.288C89.3646 40.248 89.2206 41.064 89.3166 41.736C89.3166 41.8 89.3166 41.88 89.3166 41.976C89.3486 42.04 89.3646 42.104 89.3646 42.168C89.3646 42.968 89.1246 43.368 88.6446 43.368C88.4206 43.368 88.1806 43.208 87.9246 42.888C87.7006 42.568 87.5886 42.088 87.5886 41.448C87.5886 40.488 87.8766 39.464 88.4526 38.376C89.0606 37.288 89.8606 36.2 90.8526 35.112C91.8766 33.992 93.0126 32.952 94.2606 31.992C95.5086 31 96.8046 30.152 98.1486 29.448C99.8766 28.52 101.573 27.832 103.237 27.384C104.933 26.936 106.485 26.712 107.893 26.712C109.845 26.712 111.429 27.096 112.645 27.864C113.861 28.632 114.469 29.704 114.469 31.08C114.469 32.36 113.845 33.848 112.597 35.544C111.349 37.24 109.253 39.112 106.309 41.16C107.301 41 108.229 40.888 109.093 40.824C109.957 40.728 110.757 40.68 111.493 40.68C114.245 40.68 116.229 41.144 117.445 42.072C118.693 42.968 119.317 44.136 119.317 45.576C119.317 46.632 119.013 47.784 118.405 49.032C117.829 50.248 117.013 51.512 115.957 52.824C114.421 54.712 112.485 56.536 110.149 58.296C107.845 60.056 105.253 61.576 102.373 62.856C99.5246 64.136 96.4846 65 93.2526 65.448C93.1886 68.296 93.4446 70.648 94.0206 72.504C94.6286 74.36 95.3966 75.8 96.3246 76.824C97.2526 77.88 98.1806 78.616 99.1086 79.032C100.037 79.48 100.805 79.704 101.413 79.704C101.861 79.704 102.165 79.624 102.325 79.464C102.453 79.304 102.645 79.224 102.901 79.224C103.157 79.224 103.397 79.32 103.621 79.512C103.845 79.704 103.957 79.912 103.957 80.136C103.957 80.328 103.845 80.472 103.621 80.568C102.917 80.856 102.213 81 101.509 81ZM89.7006 65.064C90.0526 65.064 90.4366 65.032 90.8526 64.968C91.2686 64.936 91.7166 64.888 92.1966 64.824C92.1646 63.48 92.1966 62.072 92.2926 60.6C92.3886 59.128 92.5646 57.592 92.8206 55.992C90.7726 57.048 89.1566 58.232 87.9726 59.544C86.7886 60.824 86.1966 61.96 86.1966 62.952C86.1966 63.56 86.4846 64.056 87.0606 64.44C87.6366 64.856 88.5166 65.064 89.7006 65.064ZM121.537 62.616C120.961 62.616 120.545 62.376 120.289 61.896C120.033 61.384 119.905 60.792 119.905 60.12C119.905 59.256 120.049 58.248 120.337 57.096C120.657 55.944 121.073 54.76 121.585 53.544C122.097 52.296 122.673 51.16 123.313 50.136C123.985 49.08 124.689 48.232 125.425 47.592C126.161 46.92 126.881 46.584 127.585 46.584C128.225 46.584 128.769 46.872 129.217 47.448C129.697 47.992 129.937 48.616 129.937 49.32C129.937 49.736 129.873 50.088 129.745 50.376C129.617 50.632 129.473 50.76 129.313 50.76C129.185 50.76 129.073 50.664 128.977 50.472C128.657 49.736 128.305 49.208 127.921 48.888C127.569 48.568 127.201 48.408 126.817 48.408C126.177 48.408 125.537 48.776 124.897 49.512C124.289 50.216 123.793 51.032 123.409 51.96C123.089 52.664 122.785 53.512 122.497 54.504C122.241 55.464 122.017 56.424 121.825 57.384C121.665 58.312 121.585 59.08 121.585 59.688C121.585 60.776 121.841 61.32 122.353 61.32C122.993 61.32 123.809 60.616 124.801 59.208C125.537 58.184 126.193 57 126.769 55.656C127.377 54.312 127.889 53.144 128.305 52.152C128.465 51.832 128.641 51.624 128.833 51.528C129.025 51.432 129.201 51.384 129.361 51.384C129.745 51.384 129.985 51.544 130.081 51.864C130.209 52.184 130.273 52.456 130.273 52.68C130.273 53.512 130.193 54.264 130.033 54.936C129.873 55.576 129.793 56.36 129.793 57.288C129.793 57.96 129.841 58.584 129.937 59.16C130.065 59.704 130.273 59.976 130.561 59.976C130.913 59.976 131.361 59.528 131.905 58.632C132.033 58.376 132.225 58.248 132.481 58.248C132.769 58.248 132.913 58.392 132.913 58.68C132.913 59.096 132.625 59.544 132.049 60.024C131.473 60.472 130.897 60.696 130.321 60.696C129.553 60.696 129.009 60.376 128.689 59.736C128.145 58.68 127.873 57.736 127.873 56.904C127.873 56.04 127.857 55.448 127.825 55.128C127.665 55.512 127.361 56.12 126.913 56.952C126.465 57.752 125.937 58.6 125.329 59.496C124.721 60.36 124.081 61.096 123.409 61.704C122.737 62.312 122.113 62.616 121.537 62.616ZM130.259 69.96C129.939 69.96 129.683 69.864 129.491 69.672C129.267 69.48 129.235 69.256 129.395 69C129.843 68.328 130.275 67.368 130.691 66.12C131.075 64.904 131.411 63.624 131.699 62.28C132.019 60.936 132.275 59.72 132.467 58.632C132.691 57.512 132.851 56.728 132.947 56.28C132.371 55.736 132.083 55.128 132.083 54.456C132.083 53.944 132.195 53.512 132.419 53.16C132.675 52.808 132.867 52.648 132.995 52.68C133.059 52.68 133.139 52.712 133.235 52.776C133.363 52.808 133.427 52.856 133.427 52.92C133.619 51.416 133.779 49.928 133.907 48.456C134.035 46.952 134.099 45.576 134.099 44.328C134.099 43.304 134.051 42.392 133.955 41.592C133.859 40.792 133.715 40.152 133.523 39.672C133.331 39.192 133.235 38.824 133.235 38.568C133.235 38.216 133.331 38.04 133.523 38.04C133.747 38.04 133.923 38.184 134.051 38.472C134.403 39.176 134.659 40.28 134.819 41.784C135.011 43.288 135.107 45 135.107 46.92C135.107 48.232 135.075 49.624 135.011 51.096C134.947 52.536 134.835 53.976 134.675 55.416C135.251 54.904 135.843 54.408 136.451 53.928C137.059 53.416 137.587 52.888 138.035 52.344V52.296C138.035 52.232 138.003 52.168 137.939 52.104C137.907 52.04 137.891 51.944 137.891 51.816C137.891 51.592 138.051 51.32 138.371 51C138.691 50.68 139.107 50.232 139.619 49.656C140.163 49.048 140.723 48.504 141.299 48.024C141.875 47.512 142.403 47.272 142.883 47.304C143.267 47.304 143.459 47.432 143.459 47.688C143.459 47.976 143.187 48.408 142.643 48.984C142.099 49.56 141.443 50.168 140.675 50.808C139.939 51.448 139.251 52.04 138.611 52.584C138.003 53.096 137.603 53.448 137.411 53.64L135.587 55.656L134.627 56.664C135.043 57.72 135.523 58.76 136.067 59.784C136.611 60.808 137.219 61.656 137.891 62.328C138.595 63 139.315 63.336 140.051 63.336C140.819 63.336 141.603 62.872 142.403 61.944C142.947 61.272 143.411 60.52 143.795 59.688C144.179 58.856 144.499 58.232 144.755 57.816C144.915 57.496 145.075 57.288 145.235 57.192C145.395 57.064 145.523 57 145.619 57C145.843 57 145.923 57.16 145.859 57.48C145.731 57.896 145.507 58.424 145.187 59.064C144.867 59.704 144.547 60.312 144.227 60.888C143.939 61.432 143.715 61.816 143.555 62.04C142.947 62.936 142.339 63.592 141.731 64.008C141.123 64.424 140.531 64.632 139.955 64.632C139.219 64.632 138.499 64.36 137.795 63.816C137.091 63.272 136.435 62.568 135.827 61.704C135.251 60.84 134.723 59.928 134.243 58.968C133.891 61.4 133.459 63.576 132.947 65.496C132.435 67.448 131.875 68.792 131.267 69.528C130.979 69.816 130.643 69.96 130.259 69.96ZM149.161 63.624C148.009 63.624 147.001 62.952 146.137 61.608C145.305 60.232 144.889 58.072 144.889 55.128C144.889 53.208 145.129 51.672 145.609 50.52C146.089 49.336 146.681 48.472 147.385 47.928C148.089 47.384 148.761 47.112 149.401 47.112C150.041 47.112 150.585 47.336 151.033 47.784C151.481 48.2 151.705 48.808 151.705 49.608C151.705 50.376 151.481 51.192 151.033 52.056C150.585 52.888 150.041 53.656 149.401 54.36C148.793 55.032 148.185 55.48 147.577 55.704C147.449 55.768 147.289 55.8 147.097 55.8C146.969 55.8 146.905 55.752 146.905 55.656C146.905 55.4 147.161 55.112 147.673 54.792C148.313 54.344 148.921 53.672 149.497 52.776C150.073 51.848 150.361 51.032 150.361 50.328C150.361 49.912 150.265 49.592 150.073 49.368C149.881 49.112 149.657 48.984 149.401 48.984C148.921 48.984 148.393 49.368 147.817 50.136C147.273 50.872 146.873 52.152 146.617 53.976C146.553 54.488 146.489 54.984 146.425 55.464C146.393 55.912 146.377 56.36 146.377 56.808C146.377 58.6 146.649 60.008 147.193 61.032C147.737 62.024 148.457 62.52 149.353 62.52C150.121 62.52 150.985 62.072 151.945 61.176C152.905 60.248 153.849 58.808 154.777 56.856C155.001 56.344 155.257 56.088 155.545 56.088C155.737 56.088 155.833 56.216 155.833 56.472C155.833 56.696 155.769 56.936 155.641 57.192C154.809 59.24 153.801 60.824 152.617 61.944C151.433 63.064 150.281 63.624 149.161 63.624Z" fill="#FFF9F4"/>
</svg>
