<svg width="50" height="51" viewBox="0 0 50 51" fill="none" xmlns="http://www.w3.org/2000/svg">
<path d="M0 25.0469C0 11.2398 11.1929 0.046875 25 0.046875C38.8071 0.046875 50 11.2398 50 25.0469C50 38.854 38.8071 50.0469 25 50.0469C11.1929 50.0469 0 38.854 0 25.0469Z" fill="white"/>
<g clip-path="url(#clip0_1_674)">
<path d="M36.2509 31.8531C35.3347 30.9301 33.1158 29.583 32.0393 29.0402C30.6373 28.334 30.5219 28.2763 29.42 29.095C28.6849 29.6413 28.1963 30.1293 27.3361 29.9459C26.4759 29.7624 24.6066 28.728 22.9698 27.0966C21.333 25.4651 20.2386 23.5417 20.0545 22.6845C19.8705 21.8272 20.3667 21.3443 20.9078 20.6076C21.6705 19.5692 21.6129 19.3961 20.9609 17.9943C20.4526 16.9039 19.0663 14.7059 18.1397 13.7944C17.1485 12.8154 17.1485 12.9885 16.5098 13.2539C15.9899 13.4726 15.4911 13.7385 15.0196 14.0483C14.0965 14.6615 13.5842 15.1709 13.2259 15.9365C12.8676 16.702 12.7067 18.4967 14.5569 21.8577C16.4071 25.2188 17.7053 26.9374 20.3921 29.6165C23.0788 32.2956 25.1449 33.7361 28.1651 35.4299C31.9014 37.5223 33.3345 37.1144 34.1024 36.7567C34.8703 36.3991 35.382 35.8914 35.9965 34.9684C36.307 34.4977 36.5735 33.9995 36.7926 33.48C37.0586 32.8436 37.2317 32.8436 36.2509 31.8531Z" stroke="#1C2752" stroke-width="2" stroke-miterlimit="10"/>
</g>
<defs>
<clipPath id="clip0_1_674">
<rect width="26" height="26" fill="white" transform="translate(12 12.0469)"/>
</clipPath>
</defs>
</svg>
